<svg width="52" height="44" viewBox="0 0 52 44" fill="none" xmlns="http://www.w3.org/2000/svg">
<rect width="51.5" height="44" rx="8" fill="#091426"/>
<path d="M28.25 19.375V17.25C28.9375 16.9583 29.6406 16.7396 30.3594 16.5938C31.0781 16.4479 31.8333 16.375 32.625 16.375C33.1667 16.375 33.6979 16.4167 34.2188 16.5C34.7396 16.5833 35.25 16.6875 35.75 16.8125V18.8125C35.25 18.625 34.7448 18.4844 34.2344 18.3906C33.724 18.2969 33.1875 18.25 32.625 18.25C31.8333 18.25 31.0729 18.349 30.3438 18.5469C29.6146 18.7448 28.9167 19.0208 28.25 19.375ZM28.25 26.25V24.125C28.9375 23.8333 29.6406 23.6146 30.3594 23.4688C31.0781 23.3229 31.8333 23.25 32.625 23.25C33.1667 23.25 33.6979 23.2917 34.2188 23.375C34.7396 23.4583 35.25 23.5625 35.75 23.6875V25.6875C35.25 25.5 34.7448 25.3594 34.2344 25.2656C33.724 25.1719 33.1875 25.125 32.625 25.125C31.8333 25.125 31.0729 25.2188 30.3438 25.4062C29.6146 25.5938 28.9167 25.875 28.25 26.25ZM28.25 22.8125V20.6875C28.9375 20.3958 29.6406 20.1771 30.3594 20.0312C31.0781 19.8854 31.8333 19.8125 32.625 19.8125C33.1667 19.8125 33.6979 19.8542 34.2188 19.9375C34.7396 20.0208 35.25 20.125 35.75 20.25V22.25C35.25 22.0625 34.7448 21.9219 34.2344 21.8281C33.724 21.7344 33.1875 21.6875 32.625 21.6875C31.8333 21.6875 31.0729 21.7865 30.3438 21.9844C29.6146 22.1823 28.9167 22.4583 28.25 22.8125ZM18.875 27C19.8542 27 20.8073 27.1094 21.7344 27.3281C22.6615 27.5469 23.5833 27.875 24.5 28.3125V16C23.6458 15.5 22.7396 15.125 21.7812 14.875C20.8229 14.625 19.8542 14.5 18.875 14.5C18.125 14.5 17.3802 14.5729 16.6406 14.7188C15.901 14.8646 15.1875 15.0833 14.5 15.375V27.75C15.2292 27.5 15.9531 27.3125 16.6719 27.1875C17.3906 27.0625 18.125 27 18.875 27ZM27 28.3125C27.9167 27.875 28.8385 27.5469 29.7656 27.3281C30.6927 27.1094 31.6458 27 32.625 27C33.375 27 34.1094 27.0625 34.8281 27.1875C35.5469 27.3125 36.2708 27.5 37 27.75V15.375C36.3125 15.0833 35.599 14.8646 34.8594 14.7188C34.1198 14.5729 33.375 14.5 32.625 14.5C31.6458 14.5 30.6771 14.625 29.7188 14.875C28.7604 15.125 27.8542 15.5 27 16V28.3125ZM25.75 32C24.75 31.2083 23.6667 30.5938 22.5 30.1562C21.3333 29.7188 20.125 29.5 18.875 29.5C18 29.5 17.1406 29.6146 16.2969 29.8438C15.4531 30.0729 14.6458 30.3958 13.875 30.8125C13.4375 31.0417 13.0156 31.0312 12.6094 30.7812C12.2031 30.5312 12 30.1667 12 29.6875V14.625C12 14.3958 12.0573 14.1771 12.1719 13.9688C12.2865 13.7604 12.4583 13.6042 12.6875 13.5C13.6458 13 14.6458 12.625 15.6875 12.375C16.7292 12.125 17.7917 12 18.875 12C20.0833 12 21.2656 12.1562 22.4219 12.4688C23.5781 12.7812 24.6875 13.25 25.75 13.875C26.8125 13.25 27.9219 12.7812 29.0781 12.4688C30.2344 12.1562 31.4167 12 32.625 12C33.7083 12 34.7708 12.125 35.8125 12.375C36.8542 12.625 37.8542 13 38.8125 13.5C39.0417 13.6042 39.2135 13.7604 39.3281 13.9688C39.4427 14.1771 39.5 14.3958 39.5 14.625V29.6875C39.5 30.1667 39.2969 30.5312 38.8906 30.7812C38.4844 31.0312 38.0625 31.0417 37.625 30.8125C36.8542 30.3958 36.0469 30.0729 35.2031 29.8438C34.3594 29.6146 33.5 29.5 32.625 29.5C31.375 29.5 30.1667 29.7188 29 30.1562C27.8333 30.5938 26.75 31.2083 25.75 32Z" fill="white"/>
</svg>
